<?xml version="1.0" encoding="UTF-8"?>
<svg version="1.1" xmlns="http://www.w3.org/2000/svg" width="500" height="500">
<path d="M0 0 C1.83805345 0.03233918 3.67633925 0.0531995 5.51464844 0.06347656 C8.21676305 0.07864633 10.9165985 0.12582004 13.61816406 0.18066406 C14.43787689 0.17986847 15.25758972 0.17907288 16.10214233 0.17825317 C20.02358586 0.29588249 21.90175079 0.49053372 24.75976562 3.27978516 C25.28280273 4.15199707 25.80583984 5.02420898 26.34472656 5.92285156 C27.37726563 7.42332031 27.37726563 7.42332031 28.43066406 8.95410156 C29.19603197 10.10879928 29.95890734 11.2651517 30.71972656 12.42285156 C31.59583358 13.74719938 32.47214829 15.07140981 33.34863281 16.39550781 C33.82316895 17.11367676 34.29770508 17.8318457 34.78662109 18.57177734 C36.495623 21.15054394 38.21420117 23.72274887 39.93457031 26.29394531 C40.55090332 27.215625 41.16723633 28.13730469 41.80224609 29.08691406 C43.01219784 30.89594958 44.22278019 32.70456352 45.43408203 34.51269531 C48.07346701 38.46461895 50.69834225 42.42564595 53.26269531 46.42675781 C53.66641357 47.05525635 54.07013184 47.68375488 54.48608398 48.33129883 C55.34472656 49.92285156 55.34472656 49.92285156 55.34472656 51.92285156 C56.00472656 51.92285156 56.66472656 51.92285156 57.34472656 51.92285156 C58.85253906 53.89160156 58.85253906 53.89160156 60.46972656 56.42285156 C61.00855469 57.25816406 61.54738281 58.09347656 62.10253906 58.95410156 C62.51246094 59.60378906 62.92238281 60.25347656 63.34472656 60.92285156 C71.54108053 47.90511291 79.26123938 34.60096617 87.03613281 21.32910156 C87.47538086 20.58023682 87.91462891 19.83137207 88.3671875 19.05981445 C89.19823979 17.6429049 90.02838873 16.22546494 90.85742188 14.80737305 C91.6044252 13.53430001 92.36350805 12.26819595 93.13748169 11.01133728 C94.37696136 8.96409739 94.37696136 8.96409739 95.23794556 6.82815552 C96.37895387 4.4306235 97.42421584 2.76984015 99.34472656 0.92285156 C103.38112984 -0.27769283 107.31819945 -0.17194342 111.50488281 -0.11230469 C113.2779203 -0.1321769 113.2779203 -0.1321769 115.08677673 -0.15245056 C118.86110158 -0.18523854 122.63287061 -0.16248253 126.40722656 -0.13964844 C128.95217387 -0.15631804 131.49710097 -0.17646024 134.04199219 -0.20019531 C138.69914568 -0.22924401 143.35573496 -0.2508739 148.01293945 -0.22583008 C148.94828018 -0.22168594 149.88362091 -0.21754181 150.8473053 -0.21327209 C153.15505256 -0.08748675 155.13412831 0.27203515 157.34472656 0.92285156 C156.72123947 3.96945551 155.7219683 6.22644295 154.08691406 8.86425781 C153.62969971 9.60716064 153.17248535 10.35006348 152.70141602 11.11547852 C152.2124585 11.89753662 151.72350098 12.67959473 151.21972656 13.48535156 C150.46985474 14.69807739 150.46985474 14.69807739 149.70483398 15.93530273 C146.52515097 21.06642318 143.30261972 26.16965376 140.04394531 31.25097656 C134.38773339 39.91488593 134.38773339 39.91488593 129.34472656 48.92285156 C128.68472656 48.92285156 128.02472656 48.92285156 127.34472656 48.92285156 C127.23298096 49.49414795 127.12123535 50.06544434 127.00610352 50.65405273 C126.26554616 53.19447338 125.19768176 55.00294291 123.76269531 57.22363281 C123.24255859 58.03638672 122.72242188 58.84914062 122.18652344 59.68652344 C121.64060547 60.52763672 121.0946875 61.36875 120.53222656 62.23535156 C116.99411746 67.72816992 113.52627215 73.2145579 110.34472656 78.92285156 C109.68472656 78.92285156 109.02472656 78.92285156 108.34472656 78.92285156 C108.12816406 79.73496094 107.91160156 80.54707031 107.68847656 81.38378906 C105.97967264 85.88430173 103.51941298 89.56692294 100.84472656 93.54785156 C99.85330881 95.03882089 98.86366222 96.5309698 97.87597656 98.02441406 C97.43833984 98.67748535 97.00070312 99.33055664 96.54980469 100.00341797 C95.32895984 101.9479646 94.21851364 103.79716491 93.34472656 105.92285156 C94.29926885 108.32707175 94.29926885 108.32707175 96.09472656 110.73535156 C96.75085938 111.70214844 97.40699219 112.66894531 98.08300781 113.66503906 C98.829375 114.74011719 99.57574219 115.81519531 100.34472656 116.92285156 C101.57350474 118.75872564 102.79258235 120.6008276 104.01171875 122.44311523 C105.71264567 125.00986756 107.42716286 127.56742222 109.14111328 130.12548828 C110.8797844 132.7218568 112.61223155 135.32235904 114.34472656 137.92285156 C114.98667969 138.88578125 115.62863281 139.84871094 116.29003906 140.84082031 C130.85253906 162.68457031 130.85253906 162.68457031 132.09985352 164.55566406 C132.92896757 165.79925384 133.75823162 167.04274364 134.58764648 168.28613281 C136.71205313 171.47128514 138.83358224 174.65829521 140.95019531 177.84863281 C144.63157163 183.39250721 148.31714659 188.9243942 152.15722656 194.36035156 C154.2488915 197.34134672 156.33608168 200.32262012 158.34472656 203.36035156 C158.96347656 204.28654297 158.96347656 204.28654297 159.59472656 205.23144531 C160.34472656 206.92285156 160.34472656 206.92285156 159.34472656 209.92285156 C151.99938076 210.03886311 144.65423348 210.12762534 137.30815601 210.18191242 C133.89675783 210.20797217 130.48598783 210.24330047 127.07495117 210.30004883 C123.15063072 210.36492559 119.22656183 210.38906226 115.30175781 210.41113281 C114.08075882 210.43693924 112.85975983 210.46274567 111.60176086 210.48933411 C103.11198603 210.49214458 103.11198603 210.49214458 99.1550293 207.55615234 C98.55762939 206.68716309 97.96022949 205.81817383 97.34472656 204.92285156 C96.71050781 204.05789063 96.07628906 203.19292969 95.42285156 202.30175781 C94.81957031 201.37234375 94.21628906 200.44292969 93.59472656 199.48535156 C92.91023437 198.43734375 92.22574219 197.38933594 91.52050781 196.30957031 C88.88114275 192.21094667 86.25510712 188.10367793 83.63085938 183.99536133 C80.91964676 179.76799472 78.07634408 175.65687715 75.16894531 171.56347656 C72.14844418 167.19118799 69.31205326 162.70171129 66.45800781 158.21972656 C65.760625 157.13175781 65.06324219 156.04378906 64.34472656 154.92285156 C63.98556152 154.34341797 63.62639648 153.76398438 63.25634766 153.16699219 C62.33777357 151.71799783 61.34689539 150.31533878 60.34472656 148.92285156 C59.68472656 148.92285156 59.02472656 148.92285156 58.34472656 148.92285156 C56.36472656 152.55285156 54.38472656 156.18285156 52.34472656 159.92285156 C51.68472656 159.92285156 51.02472656 159.92285156 50.34472656 159.92285156 C50.250625 160.45523438 50.15652344 160.98761719 50.05957031 161.53613281 C49.11201099 164.6998418 47.57034698 167.25594167 45.90722656 170.11035156 C45.38032227 171.01914062 45.38032227 171.01914062 44.84277344 171.94628906 C43.68291123 173.9421427 42.51494524 175.93305394 41.34472656 177.92285156 C40.9397998 178.6120166 40.53487305 179.30118164 40.11767578 180.01123047 C36.64185597 185.92325797 36.64185597 185.92325797 35.06884766 188.56811523 C33.01070967 192.0376045 31.00412765 195.51893782 29.10644531 199.07910156 C28.75517578 199.72814453 28.40390625 200.3771875 28.04199219 201.04589844 C27.09257375 202.81067817 26.16137066 204.58522292 25.23144531 206.36035156 C23.34472656 208.92285156 23.34472656 208.92285156 21.05863953 209.57492065 C18.35080641 209.92207211 15.76483219 210.04985096 13.03540039 210.05224609 C11.4840313 210.05697433 11.4840313 210.05697433 9.90132141 210.0617981 C8.79596542 210.05977386 7.69060944 210.05774963 6.55175781 210.05566406 C5.40938156 210.05662079 4.26700531 210.05757751 3.0900116 210.05856323 C0.68020574 210.05924275 -1.72960197 210.05740439 -4.1394043 210.05322266 C-7.8393969 210.04785646 -11.53926891 210.05318297 -15.23925781 210.05957031 C-17.57975287 210.05890978 -19.92024786 210.05762913 -22.26074219 210.05566406 C-23.37217087 210.05768829 -24.48359955 210.05971252 -25.62870789 210.0617981 C-26.65349747 210.05864594 -27.67828705 210.05549377 -28.73413086 210.05224609 C-29.63838303 210.0514505 -30.54263519 210.05065491 -31.47428894 210.04983521 C-33.65527344 209.92285156 -33.65527344 209.92285156 -35.65527344 208.92285156 C-34.1939339 203.59228349 -31.69735781 199.57754863 -28.65527344 195.04785156 C-27.65415173 193.53036182 -26.65417676 192.012115 -25.65527344 190.49316406 C-25.15125 189.72907227 -24.64722656 188.96498047 -24.12792969 188.17773438 C-21.91694262 184.79234371 -19.78414588 181.36024979 -17.65527344 177.92285156 C-14.18937372 172.34484373 -10.66624492 166.80757382 -7.09277344 161.29785156 C-6.63 160.5842749 -6.16722656 159.87069824 -5.69042969 159.13549805 C-3.95233531 156.45747022 -2.21299097 153.78025882 -0.47216797 151.10400391 C4.60966569 143.28393277 9.53698446 135.38180874 14.38183594 127.41259766 C17.49539608 122.29509721 20.66333559 117.22071104 23.90722656 112.18457031 C24.38160156 111.43820313 24.85597656 110.69183594 25.34472656 109.92285156 C26.21097656 108.69501953 26.21097656 108.69501953 27.09472656 107.44238281 C28.52521525 105.03871536 28.52521525 105.03871536 28.31738281 102.55957031 C26.97453248 98.9193134 24.96115769 95.92867023 22.78222656 92.73535156 C18.34472656 86.17000634 18.34472656 86.17000634 18.34472656 83.92285156 C17.68472656 83.92285156 17.02472656 83.92285156 16.34472656 83.92285156 C14.91988665 81.92991815 13.62308053 79.94521715 12.34472656 77.86035156 C11.53212585 76.56532612 10.71828166 75.27108026 9.90332031 73.97753906 C9.27079346 72.96965332 9.27079346 72.96965332 8.62548828 71.94140625 C6.60380598 68.75511779 4.50851854 65.619496 2.40722656 62.48535156 C1.9929541 61.86611816 1.57868164 61.24688477 1.15185547 60.60888672 C0.30815268 59.34805779 -0.53592373 58.0874788 -1.38037109 56.82714844 C-3.93967847 53.00436071 -6.48835788 49.17447773 -9.0390625 45.34594727 C-10.96112052 42.46172248 -12.88560153 39.5792337 -14.81542969 36.70019531 C-18.00745011 31.93369083 -21.15899257 27.1511172 -24.21777344 22.29785156 C-27.07542808 17.77541646 -30.07973955 13.37943937 -33.17480469 9.01660156 C-36.65527344 4.09435552 -36.65527344 4.09435552 -36.65527344 0.92285156 C-24.41931137 0.06586541 -12.26435103 -0.24448688 0 0 Z " fill="#9148EB" transform="translate(311.6552734375,144.0771484375)"/>
<path d="M0 0 C42.24 0 84.48 0 128 0 C128 13.53 128 27.06 128 41 C126.33834793 42.66165207 124.3348397 42.11959725 122.11598206 42.12442017 C121.41827194 42.12082489 120.72056183 42.11722961 120.00170898 42.11352539 C118.90421326 42.11374443 118.90421326 42.11374443 117.7845459 42.1139679 C115.35503216 42.11326867 112.92559417 42.10547585 110.49609375 42.09765625 C108.81600486 42.0957921 107.13591543 42.09436819 105.45582581 42.09336853 C101.02526357 42.08954307 96.5947339 42.07971256 92.16418457 42.06866455 C86.85284346 42.05665655 81.54149148 42.05204832 76.23014069 42.04621124 C68.15340444 42.03650081 60.07673973 42.01734447 52 42 C52 55.2 52 68.4 52 82 C74.11 82 96.22 82 119 82 C119.020625 88.579375 119.04125 95.15875 119.0625 101.9375 C119.071604 104.01667725 119.08070801 106.09585449 119.09008789 108.23803711 C119.09300701 109.87613866 119.09555558 111.51424094 119.09765625 113.15234375 C119.10277222 114.01089966 119.10788818 114.86945557 119.11315918 115.75402832 C119.1134691 117.83636052 119.06242176 119.9186036 119 122 C118 123 118 123 115.37413025 123.12025452 C114.20386795 123.11803391 113.03360565 123.11581329 111.82788086 123.11352539 C111.18399918 123.11367142 110.54011749 123.11381744 109.87672424 123.1139679 C107.73939697 123.11326885 105.60215587 123.10547691 103.46484375 123.09765625 C101.98653715 123.09579204 100.50822993 123.09436815 99.02992249 123.09336853 C95.13201198 123.08954359 91.23413851 123.07971352 87.33624268 123.06866455 C82.66316239 123.05665516 77.99006974 123.05204808 73.31697845 123.04621124 C66.21129318 123.03650174 59.10568924 123.01734505 52 123 C52 137.52 52 152.04 52 167 C53.32 166.67 54.64 166.34 56 166 C58.28123973 165.90730326 60.56502272 165.8720839 62.84814453 165.87060547 C63.52826599 165.86885315 64.20838745 165.86710083 64.90911865 165.86529541 C67.15037611 165.86090481 69.39155428 165.86380438 71.6328125 165.8671875 C73.19172175 165.86651382 74.7506309 165.86554325 76.30953979 165.86428833 C79.57274376 165.86281528 82.83592032 165.86495391 86.09912109 165.86962891 C90.28689814 165.87533544 94.47461122 165.87203888 98.66238594 165.86605644 C101.8793486 165.86244832 105.09629601 165.86359041 108.31325912 165.86618423 C109.85786827 165.86685232 111.40247879 165.86602921 112.94708633 165.86370468 C115.10164325 165.86117303 117.25609544 165.86502556 119.41064453 165.87060547 C120.63768097 165.87140106 121.86471741 165.87219666 123.12893677 165.87301636 C126 166 126 166 128 167 C128 180.53 128 194.06 128 208 C94.53055544 213.57824076 25.1671809 208.2996093 0 208 C0 139.36 0 70.72 0 0 Z " fill="#9048EA" transform="translate(126,145)"/>
<path d="M0 0 C16.83 0 33.66 0 51 0 C52 1 52 1 52.12304783 3.69991398 C52.12166514 5.5236814 52.12166514 5.5236814 52.12025452 7.3842926 C52.12110894 8.05893317 52.12196337 8.73357373 52.12284368 9.42865795 C52.12450039 11.70580162 52.11897404 13.9828728 52.11352539 16.26000977 C52.11324353 17.88575234 52.11340122 19.51149505 52.1139679 21.13723755 C52.11425593 25.56473413 52.10835827 29.99220387 52.10139394 34.41969419 C52.09516136 39.04150842 52.09455668 43.6633232 52.09336853 48.28514099 C52.09025493 57.04348237 52.08204115 65.80181133 52.07201904 74.56014723 C52.0608588 84.52854013 52.05534768 94.49693361 52.05032361 104.4653312 C52.03985856 124.97689441 52.02225857 145.48844642 52 166 C34.84087544 168.45130351 17.32905508 166.38509011 0 166 C0 111.22 0 56.44 0 0 Z " fill="#9048EA" transform="translate(39,187)"/>
<path d="M0 0 C5.82203722 5.66031396 9.43090644 11.57629187 9.68164062 19.85961914 C9.70978131 29.83900915 7.83356784 35.85640192 0.75 43 C-5.4235819 48.02772768 -14.55739923 51.01972107 -22.5703125 50.58984375 C-28.37610281 49.51816561 -34.45786239 47.8335688 -39.75 45.1875 C-39.75 44.5275 -39.75 43.8675 -39.75 43.1875 C-40.306875 42.98125 -40.86375 42.775 -41.4375 42.5625 C-46.01098089 39.84313299 -49.32919419 35.24090527 -51.24609375 30.30078125 C-52.98705163 22.99955478 -52.67030754 14.70386403 -48.75 8.1875 C-42.78452118 -0.05446039 -36.22775468 -4.64606764 -26.234375 -6.55859375 C-16.38230525 -7.56548767 -8.18649548 -5.39564475 0 0 Z " fill="#9048EB" transform="translate(85.75,121.8125)"/>
<path d="M0 0 C0.66 0 1.32 0 2 0 C0.62712658 3.69876091 -1.06355453 6.9514476 -3.125 10.3125 C-3.66382813 11.19550781 -4.20265625 12.07851562 -4.7578125 12.98828125 C-5.16773438 13.65214844 -5.57765625 14.31601563 -6 15 C-6.66 14.67 -7.32 14.34 -8 14 C-5.36 9.38 -2.72 4.76 0 0 Z " fill="#8F32ED" transform="translate(390,180)"/>
</svg>
