<?xml version="1.0" encoding="UTF-8"?>
<svg version="1.1" xmlns="http://www.w3.org/2000/svg" width="500" height="500">
<path d="M0 0 C165 0 330 0 500 0 C500 165 500 330 500 500 C335 500 170 500 0 500 C0 335 0 170 0 0 Z " fill="#FEFEFE" transform="translate(0,0)"/>
<path d="M0 0 C47.97262335 -6.78869023 47.97262335 -6.78869023 61.89361572 1.78137207 C72.8861167 11.04209006 79.30189188 24.79049417 85.33203125 37.56591797 C87.89105545 42.92963174 90.85777971 47.93017968 94.09375 52.91015625 C94.78966248 53.99592201 94.78966248 53.99592201 95.49963379 55.10362244 C96.6061745 56.77718104 97.7951292 58.39578146 99 60 C99.66 60 100.32 60 101 60 C101.3810791 59.33806641 101.7621582 58.67613281 102.15478516 57.99414062 C109.26482904 45.64768856 116.38655895 33.30831163 123.5625 21 C124.1208252 20.04158203 124.67915039 19.08316406 125.25439453 18.09570312 C126.05852783 16.71801758 126.05852783 16.71801758 126.87890625 15.3125 C127.3385376 14.52488281 127.79816895 13.73726562 128.27172852 12.92578125 C128.84205811 11.96027344 129.4123877 10.99476563 130 10 C130.35352539 9.16747711 130.70705078 8.33495422 131.07128906 7.47720337 C132.46850832 4.54123674 133.73814181 2.34502661 136 0 C140.35922693 -1.39071776 144.51706488 -1.16918661 149.0546875 -0.9765625 C150.31137238 -0.96241302 151.56805725 -0.94826355 152.86282349 -0.9336853 C156.18985901 -0.88726636 159.50992067 -0.79765223 162.83502197 -0.68664551 C166.23315417 -0.58395833 169.63201038 -0.53859597 173.03125 -0.48828125 C179.68941538 -0.37813855 186.34430548 -0.21090474 193 0 C191.67381561 3.40363948 190.25556769 6.38758113 188.26953125 9.45703125 C187.72167969 10.30974609 187.17382812 11.16246094 186.609375 12.04101562 C186.01640625 12.95560547 185.4234375 13.87019531 184.8125 14.8125 C183.53684491 16.79758906 182.26213757 18.78328742 180.98828125 20.76953125 C180.32908691 21.79643066 179.66989258 22.82333008 178.99072266 23.88134766 C175.78900587 28.89713503 172.64483694 33.94842822 169.5 39 C164.14576695 47.59013329 158.73881043 56.14441807 153.29150391 64.67578125 C148.13053666 72.76934918 143.0423201 80.90757365 137.97265625 89.05859375 C137.08513672 90.48365234 137.08513672 90.48365234 136.1796875 91.9375 C135.63151367 92.82566406 135.08333984 93.71382813 134.51855469 94.62890625 C133.23825066 96.62799189 131.88146328 98.4889273 130.4453125 100.375 C128.69460595 102.84052631 128.69460595 102.84052631 129.56469727 105.14233398 C131.55861424 109.11219249 134.00832594 112.68870159 136.51953125 116.34765625 C137.08209122 117.17620117 137.64465118 118.00474609 138.22425842 118.85839844 C139.444359 120.65496136 140.66645752 122.45016869 141.89031982 124.24417114 C145.17600067 129.06168475 148.44589725 133.88987123 151.71484375 138.71875 C152.3930719 139.72027603 153.07130005 140.72180206 153.77008057 141.75367737 C162.48208091 154.64040764 171.01246068 167.64680204 179.54223633 180.65454102 C180.69207929 182.40650515 181.84205791 184.15838026 182.9921875 185.91015625 C183.52947983 186.72956192 184.06677216 187.54896759 184.62034607 188.39320374 C187.94786515 193.45198761 191.35075461 198.43318785 194.93017578 203.31811523 C196 205 196 205 196 207 C188.57676022 207.25579741 181.15448153 207.45076818 173.72771454 207.56993389 C170.27814744 207.62715748 166.83161114 207.70462458 163.38378906 207.82983398 C159.41248988 207.9731373 155.4423813 208.02575104 151.46875 208.07421875 C150.24136108 208.13099289 149.01397217 208.18776703 147.74938965 208.2462616 C139.37679668 208.2522553 139.37679668 208.2522553 135.63250732 204.84666443 C133.52477919 201.99370002 131.75287257 199.08225818 130 196 C128.84287784 194.26119812 127.67422163 192.53000669 126.49316406 190.80737305 C125.33130367 189.04391822 124.17219529 187.27864763 123.015625 185.51171875 C122.39274597 184.56488724 121.76986694 183.61805573 121.12811279 182.64253235 C119.16623968 179.65915694 117.20802434 176.67340245 115.25 173.6875 C113.92342655 171.66845586 112.59660555 169.64957435 111.26953125 167.63085938 C109.40197268 164.78985653 107.53476491 161.9486307 105.66949463 159.10612488 C105.11501648 158.26116959 104.56053833 157.41621429 103.98925781 156.5456543 C103.47415649 155.75871185 102.95905518 154.97176941 102.42834473 154.16098022 C101.17283448 152.26148582 99.888667 150.38568383 98.59667969 148.51098633 C97 146 97 146 97 144 C94.17464478 146.52298324 92.47911315 149.35196508 90.5859375 152.6171875 C90.25860626 153.17860443 89.93127502 153.74002136 89.59402466 154.31845093 C88.51676944 156.16820052 87.44597496 158.02160845 86.375 159.875 C85.626155 161.16272809 84.87679856 162.45015889 84.12695312 163.73730469 C82.55619211 166.43467189 80.9876876 169.13333166 79.42089844 171.83300781 C75.83896045 178.00220298 72.23732308 184.15985773 68.63214111 190.31549072 C67.51014571 192.23266385 66.3904471 194.15116456 65.27099609 196.06982422 C64.58699743 197.23930658 63.90291974 198.40874271 63.21875 199.578125 C62.61998047 200.60325195 62.02121094 201.62837891 61.40429688 202.68457031 C60 205 60 205 59 206 C57.22008076 206.09370624 55.43643261 206.11744271 53.65405273 206.11352539 C52.5129454 206.11344986 51.37183807 206.11337433 50.19615173 206.11329651 C48.9545076 206.10813522 47.71286346 206.10297394 46.43359375 206.09765625 C44.53795433 206.09553383 44.53795433 206.09553383 42.60401917 206.09336853 C39.23875111 206.08870582 35.8735501 206.0797148 32.50830078 206.06866455 C29.0765033 206.05844846 25.64469891 206.05387049 22.21289062 206.04882812 C15.47524176 206.0377738 8.73762475 206.0210171 2 206 C2.93088398 204.27436651 3.86413405 202.5500093 4.79833984 200.82617188 C5.31778168 199.86578003 5.83722351 198.90538818 6.37240601 197.91589355 C8.93614965 193.32285401 11.77095599 188.91639749 14.625 184.5 C15.86488538 182.56659992 17.10446341 180.6330027 18.34375 178.69921875 C18.95863281 177.74192871 19.57351563 176.78463867 20.20703125 175.79833984 C22.86584239 171.64865393 25.49698684 167.48173428 28.125 163.3125 C29.10675975 161.75650342 30.08853054 160.20051381 31.0703125 158.64453125 C31.55274414 157.87963379 32.03517578 157.11473633 32.53222656 156.32666016 C34.5191509 153.1770612 36.50779756 150.02855158 38.49658203 146.88012695 C39.49510107 145.29932765 40.49347459 143.71843641 41.49169922 142.13745117 C44.55977755 137.27840595 47.63161356 132.42176169 50.70629883 127.56689453 C52.21350576 125.1827282 53.71447103 122.79472111 55.21484375 120.40625 C56.96997374 117.61545425 58.75128846 114.84586295 60.56640625 112.09375 C60.94958008 111.50190918 61.33275391 110.91006836 61.72753906 110.30029297 C62.73228877 108.74885451 63.75034926 107.2060584 64.76953125 105.6640625 C66.31515003 102.31767516 66.12153377 101.49675753 65 98 C63.3598209 95.10206178 61.47380413 92.38788725 59.578125 89.65234375 C59.01415009 88.82384415 58.45017517 87.99534454 57.86911011 87.14173889 C56.64455294 85.34417907 55.41641054 83.54905758 54.18511963 81.75610352 C50.87967116 76.94154397 47.60153492 72.1084313 44.3203125 67.27734375 C43.63899261 66.27561127 42.95767273 65.27387878 42.25570679 64.24179077 C34.77563321 53.22920146 27.44121276 42.12185969 20.125 31 C19.51257446 30.07033417 18.90014893 29.14066833 18.26916504 28.18283081 C16.51412698 25.51854298 14.76056981 22.85328872 13.0078125 20.1875 C12.5016037 19.41825699 11.9953949 18.64901398 11.47384644 17.85646057 C7.59154684 11.94077979 3.78723085 5.97691658 0 0 Z " fill="#914AEB" transform="translate(275,146)"/>
<path d="M0 0 C41.58 0 83.16 0 126 0 C126 13.2 126 26.4 126 40 C100.92 40 75.84 40 50 40 C50 53.86 50 67.72 50 82 C72.44 82 94.88 82 118 82 C118 94.87 118 107.74 118 121 C95.56 121 73.12 121 50 121 C50 135.85 50 150.7 50 166 C75.08 166 100.16 166 126 166 C126 179.2 126 192.4 126 206 C84.42 206 42.84 206 0 206 C0 138.02 0 70.04 0 0 Z " fill="#9149EB" transform="translate(127,146)"/>
<path d="M0 0 C16.5 0 33 0 50 0 C50 54.12 50 108.24 50 164 C33.5 164 17 164 0 164 C0 109.88 0 55.76 0 0 Z " fill="#9149EB" transform="translate(40,188)"/>
<path d="M0 0 C7.24223834 5.46975936 12.13565133 11.20886602 13.45703125 20.43359375 C13.86652408 28.83897289 11.80210574 35.20037368 6.28125 41.578125 C-0.47668166 48.03448568 -7.66829734 50.73065774 -16.95703125 51.04296875 C-26.24576516 50.73065774 -33.43738084 48.03448568 -40.1953125 41.578125 C-45.66591593 35.25842569 -47.83375212 28.84271361 -47.4375 20.5 C-45.94669809 11.32490205 -40.50020014 4.56027609 -33.140625 -0.7734375 C-23.85869264 -5.98657759 -8.97023136 -5.51182891 0 0 Z " fill="#924AEB" transform="translate(81.95703125,120.45703125)"/>
</svg>
